<?xml version="1.0" encoding="UTF-8"?>
<svg width="100px" height="100px" viewBox="0 0 100 100" version="1.1" xmlns="http://www.w3.org/2000/svg" xmlns:xlink="http://www.w3.org/1999/xlink">
    <!-- Generator: Sketch 46.2 (44496) - http://www.bohemiancoding.com/sketch -->
    <title>icon-big-account</title>
    <desc>Created with Sketch.</desc>
    <defs>
        <linearGradient x1="50%" y1="0%" x2="50%" y2="100%" id="linearGradient-1">
            <stop stop-color="#E3EEFF" offset="0%"></stop>
            <stop stop-color="#FFFFFF" offset="100%"></stop>
        </linearGradient>
        <linearGradient x1="50%" y1="0%" x2="50%" y2="100%" id="linearGradient-2">
            <stop stop-color="#F9DBDD" offset="0%"></stop>
            <stop stop-color="#FFFFFF" offset="100%"></stop>
        </linearGradient>
        <path d="M4,-1.33232184e-15 L65,-1.33232184e-15 L65,-1.77635684e-15 C67.209139,-2.18217371e-15 69,1.790861 69,4 L69,37 L69,53 L69,53 C69,55.209139 67.209139,57 65,57 L49,57 L4,57 L4,57 C1.790861,57 3.75067146e-15,55.209139 -4.4408921e-16,53 L0,4 L-4.4408921e-16,4 C-1.6956855e-15,1.790861 1.790861,-4.82361547e-16 4,-8.8817842e-16 Z" id="path-3"></path>
        <circle id="path-4" cx="16" cy="16" r="16"></circle>
    </defs>
    <g id="Instruments" stroke="none" stroke-width="1" fill="none" fill-rule="evenodd">
        <g id="AM-5.0-Instruments-page-2.1-Mobile" transform="translate(-136.000000, -5580.000000)">
            <g id="Section" transform="translate(0.000000, 5425.000000)">
                <g id="Icons" transform="translate(20.000000, 155.000000)">
                    <g id="Open-Account">
                        <g id="icon-big-account" transform="translate(116.000000, 0.000000)">
                            <rect id="Blue" fill="url(#linearGradient-1)" x="32" y="0" width="68" height="62" rx="8"></rect>
                            <rect id="Red" fill="url(#linearGradient-2)" x="0" y="36" width="68" height="64" rx="8"></rect>
                            <g id="Block" transform="translate(11.000000, 18.000000)">
                                <g id="Rectangle-17">
                                    <use fill="#FFFFFF" fill-rule="evenodd" xlink:href="#path-3"></use>
                                    <path stroke="#2585FF" stroke-width="2" d="M4,1 C2.34314575,1 1,2.34314575 1,4 L1,53 C1,54.6568542 2.34314575,56 4,56 L65,56 C66.6568542,56 68,54.6568542 68,53 L68,4 C68,2.34314575 66.6568542,1 65,1 L4,1 Z"></path>
                                </g>
                                <g id="header" transform="translate(1.000000, 6.000000)">
                                    <path d="M0,7 L67.0074623,7" id="Path-10" stroke="#2585FF" stroke-width="2"></path>
                                    <circle id="Oval-2" fill="#2585FF" cx="6" cy="1" r="1"></circle>
                                    <circle id="Oval-2" fill="#2585FF" cx="9" cy="1" r="1"></circle>
                                    <circle id="Oval-2" fill="#2585FF" cx="12" cy="1" r="1"></circle>
                                </g>
                                <g id="Inner" transform="translate(8.000000, 22.000000)" stroke="#2585FF" stroke-width="2">
                                    <rect id="Rectangle-19" x="1" y="1" width="21" height="22" rx="1"></rect>
                                    <path d="M5.17358711,23 L17.8264129,23 C17.1478847,20.1232212 14.5610622,18 11.5,18 C8.4389378,18 5.8521153,20.1232212 5.17358711,23 Z" id="Combined-Shape"></path>
                                    <circle id="Oval-6" cx="11.5" cy="10.5" r="3.5"></circle>
                                    <path d="M31,1 L51,1" id="Path-11" stroke-linecap="round"></path>
                                    <path d="M31,5 L39,5" id="Path-11" stroke-linecap="round"></path>
                                    <path d="M31,11 L49,11" id="Path-11" stroke-linecap="round"></path>
                                    <path d="M31,15 L44,15" id="Path-11" stroke-linecap="round"></path>
                                    <path d="M31,19 L41,19" id="Path-11" stroke-linecap="round"></path>
                                    <path d="M31,23 L41,23" id="Path-11" stroke-linecap="round"></path>
                                </g>
                            </g>
                            <g id="Check" transform="translate(63.000000, 53.000000)">
                                <g id="Oval-4">
                                    <use fill="#2585FF" fill-rule="evenodd" xlink:href="#path-4"></use>
                                    <circle stroke="#2585FF" stroke-width="2" cx="16" cy="16" r="15"></circle>
                                </g>
                                <text id="1" font-family="Roboto-Black, Roboto" font-size="14" font-weight="700" fill="#FFFFFF">
                                    <tspan x="11.9462891" y="21">1</tspan>
                                </text>
                            </g>
                        </g>
                    </g>
                </g>
            </g>
        </g>
    </g>
</svg>