<?xml version="1.0" encoding="UTF-8"?>
<svg width="100px" height="90px" viewBox="0 0 100 90" version="1.1" xmlns="http://www.w3.org/2000/svg" xmlns:xlink="http://www.w3.org/1999/xlink">
    <!-- Generator: Sketch 46.2 (44496) - http://www.bohemiancoding.com/sketch -->
    <title>icon-big-trading</title>
    <desc>Created with Sketch.</desc>
    <defs>
        <linearGradient x1="50%" y1="0%" x2="50%" y2="100%" id="linearGradient-1">
            <stop stop-color="#E3EEFF" offset="0%"></stop>
            <stop stop-color="#FFFFFF" offset="100%"></stop>
        </linearGradient>
        <linearGradient x1="50%" y1="0%" x2="50%" y2="100%" id="linearGradient-2">
            <stop stop-color="#F9DBDD" offset="0%"></stop>
            <stop stop-color="#FFFFFF" offset="100%"></stop>
        </linearGradient>
    </defs>
    <g id="Page-1" stroke="none" stroke-width="1" fill="none" fill-rule="evenodd">
        <g id="icon-big-trading">
            <rect id="Blue" fill="url(#linearGradient-1)" fill-rule="nonzero" x="38" y="0" width="62" height="62" rx="8"></rect>
            <rect id="Red" fill="url(#linearGradient-2)" fill-rule="nonzero" x="4" y="30" width="68" height="60" rx="8"></rect>
            <g id="graph" transform="translate(18.000000, 14.000000)">
                <g id="Rectangle-21">
                    <g id="path-3-link" fill="#FFFFFF">
                        <rect id="path-3" x="0" y="0" width="68" height="50" rx="4"></rect>
                    </g>
                    <rect id="Rectangle-path" stroke="#2585FF" stroke-width="2" x="1" y="1" width="66" height="48" rx="4"></rect>
                </g>
                <polyline id="Path-14" stroke="#2585FF" stroke-width="2" stroke-linecap="round" stroke-linejoin="round" points="1 34 20 20 40 37 67 13"></polyline>
                <path d="M20,20 L20,49.0172363" id="Path-15" stroke="#2585FF" stroke-width="2"></path>
                <path d="M20,1 L20,21.0172363" id="Path-15" stroke="#2585FF" stroke-width="2" stroke-dasharray="2"></path>
                <path d="M40,1 L40,36" id="Path-15" stroke="#2585FF" stroke-width="2" stroke-dasharray="2"></path>
                <path d="M40,36 L40,49.0172363" id="Path-15" stroke="#2585FF" stroke-width="2"></path>
                <g id="Oval-7" transform="translate(16.000000, 17.000000)">
                    <g id="path-4-link" fill="#FFFFFF">
                        <circle id="path-4" cx="4" cy="4" r="4"></circle>
                    </g>
                    <circle id="Oval" stroke="#2585FF" stroke-width="2" cx="4" cy="4" r="3"></circle>
                </g>
                <g id="Oval-7" transform="translate(36.000000, 32.000000)">
                    <g id="path-5-link" fill="#FFFFFF">
                        <circle id="path-5" cx="4" cy="4" r="4"></circle>
                    </g>
                    <circle id="Oval" stroke="#2585FF" stroke-width="2" cx="4" cy="4" r="3"></circle>
                </g>
            </g>
            <g id="arrows" transform="translate(0.000000, 46.000000)">
                <g id="Rectangle-21">
                    <g id="path-6-link" fill="#FFFFFF">
                        <rect id="path-6" x="0" y="0" width="48" height="40" rx="4"></rect>
                    </g>
                    <rect id="Rectangle-path" stroke="#2585FF" stroke-width="2" x="1" y="1" width="46" height="38" rx="4"></rect>
                </g>
                <g id="icon-45" stroke-linecap="round" stroke-linejoin="round" transform="translate(12.000000, 8.000000)" stroke-width="2" stroke="#2572DE">
                    <polyline id="Stroke-1" points="24 17.6 17.8666667 24 11.7333333 17.6"></polyline>
                    <polyline id="Stroke-3" points="0 6.4 6.13333333 0 12.2666667 6.4"></polyline>
                    <path d="M6.13333333,0 L6.13333333,14.4" id="Stroke-5"></path>
                    <path d="M17.8666667,9.6 L17.8666667,24" id="Stroke-7"></path>
                </g>
            </g>
            <g id="Check" transform="translate(68.000000, 52.000000)">
                <g id="Oval-4">
                    <g id="path-7-link" fill="#2585FF">
                        <circle id="path-7" cx="16" cy="16" r="16"></circle>
                    </g>
                    <circle id="Oval" stroke="#2585FF" stroke-width="2" cx="16" cy="16" r="15"></circle>
                </g>
                <g id="3" transform="translate(13.000000, 11.000000)" fill="#FFFFFF">
                    <path d="M3.33704725,4.24511719 C3.81100795,4.24511719 4.16305521,4.12207154 4.39319959,3.87597656 C4.62334397,3.62988158 4.73841444,3.28353088 4.73841444,2.83691406 C4.73841444,2.46321428 4.61764742,2.15332154 4.37610975,1.90722656 C4.13457208,1.66113158 3.79733587,1.53808594 3.364391,1.53808594 C2.99980584,1.53808594 2.69333104,1.64973847 2.44495741,1.87304688 C2.19658377,2.09635528 2.07239881,2.38118316 2.07239881,2.72753906 L0.144664438,2.72753906 L0.130992563,2.68652344 C0.103648677,1.90722267 0.404426919,1.26465097 1.03333631,0.758789062 C1.66224571,0.252927158 2.43925617,0 3.364391,0 C4.39434407,0 5.21236974,0.242673354 5.81849256,0.728027344 C6.42461539,1.21338133 6.72767225,1.90950067 6.72767225,2.81640625 C6.72767225,3.2721377 6.59665143,3.69026502 6.33460584,4.07080078 C6.07256026,4.45133654 5.71367713,4.75097547 5.25794569,4.96972656 C5.77747954,5.16569108 6.17851719,5.46305139 6.46107069,5.86181641 C6.74362418,6.26058142 6.88489881,6.7425102 6.88489881,7.30761719 C6.88489881,8.21908008 6.55563778,8.93570703 5.89710584,9.45751953 C5.23857391,9.97933204 4.39434407,10.2402344 3.364391,10.2402344 C2.45748542,10.2402344 1.6645246,9.99414309 0.985484751,9.50195312 C0.306444897,9.00976316 -0.0216768214,8.31934038 0.00110975089,7.43066406 L0.0147816259,7.38964844 L1.95618788,7.38964844 C1.95618788,7.76334822 2.0872087,8.07665889 2.34925428,8.32958984 C2.61129986,8.5825208 2.94967539,8.70898438 3.364391,8.70898438 C3.82012245,8.70898438 4.18925938,8.57454562 4.47181288,8.30566406 C4.75436637,8.03678251 4.895641,7.69726768 4.895641,7.28710938 C4.895641,6.76301821 4.76348086,6.37451298 4.49915663,6.12158203 C4.23483239,5.86865108 3.84746647,5.7421875 3.33704725,5.7421875 L2.23646131,5.7421875 L2.23646131,4.24511719 L3.33704725,4.24511719 Z"></path>
                </g>
            </g>
        </g>
    </g>
</svg>