<?xml version="1.0" encoding="UTF-8"?>
<svg width="100px" height="100px" viewBox="0 0 100 100" version="1.1" xmlns="http://www.w3.org/2000/svg" xmlns:xlink="http://www.w3.org/1999/xlink">
    <!-- Generator: Sketch 46.2 (44496) - http://www.bohemiancoding.com/sketch -->
    <title>icon-big-account</title>
    <desc>Created with Sketch.</desc>
    <defs>
        <linearGradient x1="50%" y1="0%" x2="50%" y2="100%" id="linearGradient-1">
            <stop stop-color="#E3EEFF" offset="0%"></stop>
            <stop stop-color="#FFFFFF" offset="100%"></stop>
        </linearGradient>
        <linearGradient x1="50%" y1="0%" x2="50%" y2="100%" id="linearGradient-2">
            <stop stop-color="#F9DBDD" offset="0%"></stop>
            <stop stop-color="#FFFFFF" offset="100%"></stop>
        </linearGradient>
    </defs>
    <g id="Page-1" stroke="none" stroke-width="1" fill="none" fill-rule="evenodd">
        <g id="icon-big-account">
            <rect id="Blue" fill="url(#linearGradient-1)" fill-rule="nonzero" x="32" y="0" width="68" height="62" rx="8"></rect>
            <rect id="Red" fill="url(#linearGradient-2)" fill-rule="nonzero" x="0" y="36" width="68" height="64" rx="8"></rect>
            <g id="Block" transform="translate(11.000000, 18.000000)">
                <g id="Rectangle-17">
                    <g id="path-3-link" fill="#FFFFFF">
                        <path d="M4,-1.33232184e-15 L65,-1.33232184e-15 L65,-1.77635684e-15 C67.209139,-2.18217371e-15 69,1.790861 69,4 L69,37 L69,53 L69,53 C69,55.209139 67.209139,57 65,57 L49,57 L4,57 L4,57 C1.790861,57 3.75067146e-15,55.209139 -4.4408921e-16,53 L0,4 L-4.4408921e-16,4 C-1.6956855e-15,1.790861 1.790861,-4.82361547e-16 4,-1.33232184e-15 Z" id="path-3"></path>
                    </g>
                    <path d="M4,1 C2.34314575,1 1,2.34314575 1,4 L1,53 C1,54.6568542 2.34314575,56 4,56 L65,56 C66.6568542,56 68,54.6568542 68,53 L68,4 C68,2.34314575 66.6568542,1 65,1 L4,1 Z" id="Shape" stroke="#2585FF" stroke-width="2"></path>
                </g>
                <g id="header" transform="translate(1.000000, 6.000000)">
                    <path d="M0,7 L67.0074623,7" id="Path-10" stroke="#2585FF" stroke-width="2"></path>
                    <circle id="Oval-2" fill="#2585FF" fill-rule="nonzero" cx="6" cy="1" r="1"></circle>
                    <circle id="Oval-2" fill="#2585FF" fill-rule="nonzero" cx="9" cy="1" r="1"></circle>
                    <circle id="Oval-2" fill="#2585FF" fill-rule="nonzero" cx="12" cy="1" r="1"></circle>
                </g>
                <g id="Inner" transform="translate(9.000000, 23.000000)" stroke="#2585FF" stroke-width="2">
                    <rect id="Rectangle-19" x="0" y="0" width="21" height="22" rx="1"></rect>
                    <path d="M4.17358711,22 L16.8264129,22 C16.1478847,19.1232212 13.5610622,17 10.5,17 C7.4389378,17 4.8521153,19.1232212 4.17358711,22 Z" id="Combined-Shape"></path>
                    <circle id="Oval-6" cx="10.5" cy="9.5" r="3.5"></circle>
                    <path d="M30,0 L50,0" id="Path-11" stroke-linecap="round"></path>
                    <path d="M30,4 L38,4" id="Path-11" stroke-linecap="round"></path>
                    <path d="M30,10 L48,10" id="Path-11" stroke-linecap="round"></path>
                    <path d="M30,14 L43,14" id="Path-11" stroke-linecap="round"></path>
                    <path d="M30,18 L40,18" id="Path-11" stroke-linecap="round"></path>
                    <path d="M30,22 L40,22" id="Path-11" stroke-linecap="round"></path>
                </g>
            </g>
            <g id="Check" transform="translate(63.000000, 53.000000)">
                <g id="Oval-4">
                    <g id="path-4-link" fill="#2585FF">
                        <circle id="path-4" cx="16" cy="16" r="16"></circle>
                    </g>
                    <circle id="Oval" stroke="#2585FF" stroke-width="2" cx="16" cy="16" r="15"></circle>
                </g>
                <g id="1" transform="translate(11.000000, 8.000000)" fill="#FFFFFF">
                    <polygon points="6.38769535 13 4.39843754 13 4.39843754 4.78320312 2.34082035 4.78320312 2.34082035 3.25878906 6.38769535 2.90332031"></polygon>
                </g>
            </g>
        </g>
    </g>
</svg>