<?xml version="1.0" encoding="UTF-8"?>
<svg width="100px" height="100px" viewBox="0 0 100 100" version="1.1" xmlns="http://www.w3.org/2000/svg" xmlns:xlink="http://www.w3.org/1999/xlink">
    <!-- Generator: Sketch 46.2 (44496) - http://www.bohemiancoding.com/sketch -->
    <title>icon-big-download</title>
    <desc>Created with Sketch.</desc>
    <defs>
        <linearGradient x1="50%" y1="0%" x2="50%" y2="100%" id="linearGradient-1">
            <stop stop-color="#E3EEFF" offset="0%"></stop>
            <stop stop-color="#FFFFFF" offset="100%"></stop>
        </linearGradient>
        <linearGradient x1="50%" y1="0%" x2="50%" y2="100%" id="linearGradient-2">
            <stop stop-color="#F9DBDD" offset="0%"></stop>
            <stop stop-color="#FFFFFF" offset="100%"></stop>
        </linearGradient>
    </defs>
    <g id="Page-1" stroke="none" stroke-width="1" fill="none" fill-rule="evenodd">
        <g id="icon-big-download">
            <rect id="Blue" fill="url(#linearGradient-1)" fill-rule="nonzero" x="38" y="0" width="62" height="62" rx="8"></rect>
            <rect id="Red" fill="url(#linearGradient-2)" fill-rule="nonzero" x="0" y="40" width="68" height="60" rx="8"></rect>
            <g id="Block" transform="translate(10.000000, 18.000000)">
                <path d="M14,64 L62.0104155,64" id="Path-12" stroke="#2585FF" stroke-width="2" stroke-linecap="round"></path>
                <polygon id="Rectangle-18" stroke="#2585FF" stroke-width="2" fill="#FFFFFF" fill-rule="nonzero" points="27.0540541 53 48.9459459 53 53 64 23 64"></polygon>
                <g id="Rectangle-17">
                    <g id="path-3-link" fill="#FFFFFF">
                        <path d="M4.29296875,-2.383754e-15 L70.2929688,-2.383754e-15 L70.2929688,-1.77635684e-15 C72.5021077,-2.18217371e-15 74.2929688,1.790861 74.2929688,4 L74.2929688,35.0526316 L74.2929688,50 L74.2929688,50 C74.2929688,52.209139 72.5021077,54 70.2929688,54 L52.8436934,54 L4.29296875,54 L4.29296875,54 C2.08382975,54 0.29296875,52.209139 0.29296875,50 L0.29296875,4 L0.29296875,4 C0.29296875,1.790861 2.08382975,-3.14689681e-15 4.29296875,-2.383754e-15 Z" id="path-3"></path>
                    </g>
                    <path d="M4.29296875,1 C2.6361145,1 1.29296875,2.34314575 1.29296875,4 L1.29296875,50 C1.29296875,51.6568542 2.6361145,53 4.29296875,53 L70.2929688,53 C71.949823,53 73.2929688,51.6568542 73.2929688,50 L73.2929688,4 C73.2929688,2.34314575 71.949823,1 70.2929688,1 L4.29296875,1 Z" id="Shape" stroke="#2585FF" stroke-width="2"></path>
                </g>
                <path d="M1,45 L73.0277724,45" id="Path-13" stroke="#2585FF" stroke-width="2"></path>
                <g id="icon-68" transform="translate(24.000000, 8.000000)">
                    <path d="M24,24 L24,28 C24,29.104 23.104,30 22,30 L2,30 C0.896,30 0,29.104 0,28 L0,8 C0,6.896 0.896,6 2,6 L6,6" id="Stroke-1" stroke="#2585FF" stroke-width="2" stroke-linecap="round" stroke-linejoin="round"></path>
                    <path d="M0,14 L6,14" id="Stroke-3" stroke="#2585FF" stroke-width="2" stroke-linecap="round" stroke-linejoin="round"></path>
                    <path d="M28,24 L8,24 C6.896,24 6,23.104 6,22 L6,2 C6,0.896 6.896,0 8,0 L28,0 C29.104,0 30,0.896 30,2 L30,22 C30,23.104 29.104,24 28,24 Z" id="Stroke-5" stroke="#2585FF" stroke-width="2" stroke-linecap="round" stroke-linejoin="round"></path>
                    <path d="M6,8 L30,8" id="Stroke-7" stroke="#2585FF" stroke-width="2" stroke-linecap="round" stroke-linejoin="round"></path>
                    <path d="M10.998,4 C10.998,4.551 10.551,4.998 10,4.998 C9.449,4.998 9.002,4.551 9.002,4 C9.002,3.449 9.449,3.002 10,3.002 C10.551,3.002 10.998,3.449 10.998,4" id="Fill-9" fill="#2585FF" fill-rule="nonzero"></path>
                    <path d="M14.998,4 C14.998,4.551 14.551,4.998 14,4.998 C13.449,4.998 13.002,4.551 13.002,4 C13.002,3.449 13.449,3.002 14,3.002 C14.551,3.002 14.998,3.449 14.998,4" id="Fill-11" fill="#2585FF" fill-rule="nonzero"></path>
                    <path d="M18.998,4 C18.998,4.551 18.551,4.998 18,4.998 C17.449,4.998 17.002,4.551 17.002,4 C17.002,3.449 17.449,3.002 18,3.002 C18.551,3.002 18.998,3.449 18.998,4" id="Fill-13" fill="#2585FF" fill-rule="nonzero"></path>
                </g>
            </g>
            <g id="Check" transform="translate(67.000000, 52.000000)">
                <g id="Oval-4">
                    <g id="path-4-link" fill="#2585FF">
                        <circle id="path-4" cx="16" cy="16" r="16"></circle>
                    </g>
                    <circle id="Oval" stroke="#2585FF" stroke-width="2" cx="16" cy="16" r="15"></circle>
                </g>
                <g id="2" transform="translate(11.000000, 8.000000)" fill="#FFFFFF">
                    <path d="M8.42480472,13 L1.74609379,13 L1.74609379,11.6943359 L4.8291016,8.20800781 C5.28939036,7.66568739 5.61637277,7.20654485 5.81005863,6.83056641 C6.0037445,6.45458796 6.10058597,6.10937657 6.10058597,5.79492188 C6.10058597,5.38476357 5.99804794,5.05664186 5.79296879,4.81054688 C5.58788964,4.56445189 5.28027553,4.44140625 4.87011722,4.44140625 C4.43717235,4.44140625 4.10221476,4.59863124 3.86523441,4.91308594 C3.62825406,5.22754063 3.50976566,5.62629967 3.50976566,6.109375 L1.56835941,6.109375 L1.55468754,6.06835938 C1.53190097,5.18424037 1.82356472,4.4357127 2.42968754,3.82275391 C3.03581036,3.20979511 3.84927879,2.90332031 4.87011722,2.90332031 C5.89095566,2.90332031 6.68391648,3.16422265 7.24902347,3.68603516 C7.81413047,4.20784766 8.09667972,4.90852425 8.09667972,5.78808594 C8.09667972,6.38509413 7.93831542,6.92968504 7.62158207,7.421875 C7.30484871,7.91406496 6.75911849,8.59537325 5.98437504,9.46582031 L4.34375004,11.4345703 L4.35742191,11.46875 L8.42480472,11.46875 L8.42480472,13 Z"></path>
                </g>
            </g>
        </g>
    </g>
</svg>